<svg xmlns="http://www.w3.org/2000/svg" width="500" height="500" viewBox="0 0 500 500" font-family="Arial, Helvetica, sans-serif">
  <defs>
    <marker id="arr" markerWidth="10" markerHeight="7" refX="9" refY="3.5" orient="auto">
      <polygon points="0 0, 10 3.5, 0 7" fill="#6B7280"/>
    </marker>
    <marker id="arr-blue" markerWidth="10" markerHeight="7" refX="9" refY="3.5" orient="auto">
      <polygon points="0 0, 10 3.5, 0 7" fill="#2563EB"/>
    </marker>
  </defs>

  <!-- Background -->
  <rect width="500" height="500" fill="#ffffff"/>

  <!-- Title -->
  <text x="250" y="32" text-anchor="middle" font-size="18" font-weight="bold" fill="#111827">Agent Anatomy: The Four Components</text>
  <line x1="40" y1="44" x2="460" y2="44" stroke="#D1D5DB" stroke-width="1"/>

  <!-- Center circle: Agent Loop label -->
  <circle cx="250" cy="272" r="58" fill="#F9FAFB" stroke="#D1D5DB" stroke-width="2"/>
  <text x="250" y="267" text-anchor="middle" font-size="14" font-weight="bold" fill="#374151">Agent</text>
  <text x="250" y="284" text-anchor="middle" font-size="14" font-weight="bold" fill="#374151">Loop</text>

  <!-- TOP: Observation -->
  <rect x="155" y="62" width="190" height="72" rx="8" fill="#EFF6FF" stroke="#3B82F6" stroke-width="1.5"/>
  <text x="250" y="90" text-anchor="middle" font-size="15" font-weight="bold" fill="#1D4ED8">Observation</text>
  <text x="250" y="108" text-anchor="middle" font-size="11" fill="#6B7280">Perceive current state</text>
  <text x="250" y="124" text-anchor="middle" font-size="11" fill="#6B7280">query · tool results · history</text>

  <!-- RIGHT: Reasoning -->
  <rect x="322" y="234" width="150" height="72" rx="8" fill="#FEF3C7" stroke="#F59E0B" stroke-width="1.5"/>
  <text x="397" y="262" text-anchor="middle" font-size="15" font-weight="bold" fill="#92400E">Reasoning</text>
  <text x="397" y="280" text-anchor="middle" font-size="11" fill="#6B7280">Decide what to do</text>
  <text x="397" y="296" text-anchor="middle" font-size="11" fill="#6B7280">next · LLM call</text>

  <!-- BOTTOM: Action -->
  <rect x="155" y="378" width="190" height="72" rx="8" fill="#FEF2F2" stroke="#EF4444" stroke-width="1.5"/>
  <text x="250" y="406" text-anchor="middle" font-size="15" font-weight="bold" fill="#B91C1C">Action</text>
  <text x="250" y="424" text-anchor="middle" font-size="11" fill="#6B7280">Execute via tools</text>
  <text x="250" y="440" text-anchor="middle" font-size="11" fill="#6B7280">or return answer</text>

  <!-- LEFT: State -->
  <rect x="28" y="234" width="150" height="72" rx="8" fill="#F0FDF4" stroke="#10B981" stroke-width="1.5"/>
  <text x="103" y="262" text-anchor="middle" font-size="15" font-weight="bold" fill="#065F46">State</text>
  <text x="103" y="280" text-anchor="middle" font-size="11" fill="#6B7280">Memory of what</text>
  <text x="103" y="296" text-anchor="middle" font-size="11" fill="#6B7280">happened so far</text>

  <!-- Arrow: Observation → Reasoning (top to right, clockwise) -->
  <!-- From bottom-right of Observation box toward Reasoning -->
  <path d="M345,134 Q420,134 420,232" fill="none" stroke="#6B7280" stroke-width="2" marker-end="url(#arr)"/>

  <!-- Arrow: Reasoning → Action (right to bottom, clockwise) -->
  <path d="M420,308 Q420,378 345,414" fill="none" stroke="#6B7280" stroke-width="2" marker-end="url(#arr)"/>

  <!-- Arrow: Action → State (bottom to left, clockwise) -->
  <path d="M155,414 Q80,378 80,308" fill="none" stroke="#6B7280" stroke-width="2" marker-end="url(#arr)"/>

  <!-- Arrow: State → Observation (left to top, clockwise) -->
  <path d="M80,232 Q80,134 155,134" fill="none" stroke="#6B7280" stroke-width="2" marker-end="url(#arr)"/>

  <!-- Small clockwise rotation hint -->
  <text x="250" y="466" text-anchor="middle" font-size="11" fill="#9CA3AF">Each step: observe → reason → act → update state → repeat</text>
</svg>
