<svg xmlns="http://www.w3.org/2000/svg" width="800" height="520" viewBox="0 0 800 520" font-family="Arial, Helvetica, sans-serif">
  <defs>
    <marker id="arrowhead" markerWidth="10" markerHeight="7" refX="9" refY="3.5" orient="auto">
      <polygon points="0 0, 10 3.5, 0 7" fill="#6B7280"/>
    </marker>
    <marker id="arrowhead-blue" markerWidth="10" markerHeight="7" refX="9" refY="3.5" orient="auto">
      <polygon points="0 0, 10 3.5, 0 7" fill="#2563EB"/>
    </marker>
    <marker id="arrowhead-red" markerWidth="10" markerHeight="7" refX="9" refY="3.5" orient="auto">
      <polygon points="0 0, 10 3.5, 0 7" fill="#EF4444"/>
    </marker>
    <marker id="arrowhead-green" markerWidth="10" markerHeight="7" refX="9" refY="3.5" orient="auto">
      <polygon points="0 0, 10 3.5, 0 7" fill="#10B981"/>
    </marker>
  </defs>

  <!-- Background -->
  <rect width="800" height="520" fill="#ffffff"/>

  <!-- Title -->
  <text x="400" y="36" text-anchor="middle" font-size="18" font-weight="bold" fill="#111827">Multi-Agent Coordination Pattern</text>
  <line x1="100" y1="48" x2="700" y2="48" stroke="#D1D5DB" stroke-width="1"/>

  <!-- User Query (top) -->
  <rect x="310" y="68" width="180" height="52" rx="8" fill="#EFF6FF" stroke="#3B82F6" stroke-width="1.5"/>
  <text x="400" y="90" text-anchor="middle" font-size="14" font-weight="bold" fill="#1D4ED8">User Query</text>
  <text x="400" y="108" text-anchor="middle" font-size="11" fill="#6B7280">incoming request</text>

  <!-- Arrow: User Query -> Coordinator -->
  <line x1="400" y1="120" x2="400" y2="158" stroke="#2563EB" stroke-width="1.5" marker-end="url(#arrowhead-blue)"/>

  <!-- Coordinator Agent (center) -->
  <rect x="280" y="158" width="240" height="64" rx="8" fill="#1D4ED8" stroke="#1E40AF" stroke-width="2"/>
  <text x="400" y="185" text-anchor="middle" font-size="14" font-weight="bold" fill="#ffffff">CoordinatorAgent</text>
  <text x="400" y="204" text-anchor="middle" font-size="11" fill="#BFDBFE">plans · dispatches · aggregates</text>

  <!-- Arrow: Coordinator -> RetrieverAgent -->
  <line x1="310" y1="222" x2="170" y2="298" stroke="#6B7280" stroke-width="1.5" marker-end="url(#arrowhead)"/>
  <text x="218" y="258" text-anchor="middle" font-size="11" fill="#6B7280">fetch docs</text>

  <!-- Arrow: Coordinator -> ReasoningAgent -->
  <line x1="400" y1="222" x2="400" y2="298" stroke="#6B7280" stroke-width="1.5" marker-end="url(#arrowhead)"/>
  <text x="430" y="262" text-anchor="middle" font-size="11" fill="#6B7280">reason</text>

  <!-- Arrow: Coordinator -> VerifierAgent -->
  <line x1="490" y1="222" x2="630" y2="298" stroke="#6B7280" stroke-width="1.5" marker-end="url(#arrowhead)"/>
  <text x="582" y="258" text-anchor="middle" font-size="11" fill="#6B7280">verify</text>

  <!-- RetrieverAgent -->
  <rect x="60" y="298" width="200" height="64" rx="8" fill="#ffffff" stroke="#3B82F6" stroke-width="1.5"/>
  <text x="160" y="325" text-anchor="middle" font-size="14" font-weight="bold" fill="#1D4ED8">RetrieverAgent</text>
  <text x="160" y="344" text-anchor="middle" font-size="11" fill="#6B7280">vector search · reranking</text>

  <!-- ReasoningAgent -->
  <rect x="300" y="298" width="200" height="64" rx="8" fill="#ffffff" stroke="#F59E0B" stroke-width="1.5"/>
  <text x="400" y="325" text-anchor="middle" font-size="14" font-weight="bold" fill="#92400E">ReasoningAgent</text>
  <text x="400" y="344" text-anchor="middle" font-size="11" fill="#6B7280">chain-of-thought · synthesis</text>

  <!-- VerifierAgent -->
  <rect x="540" y="298" width="200" height="64" rx="8" fill="#ffffff" stroke="#10B981" stroke-width="1.5"/>
  <text x="640" y="325" text-anchor="middle" font-size="14" font-weight="bold" fill="#065F46">VerifierAgent</text>
  <text x="640" y="344" text-anchor="middle" font-size="11" fill="#6B7280">fact-check · confidence score</text>

  <!-- Verification loop: VerifierAgent -> ReasoningAgent (dashed feedback) -->
  <!-- Loop path goes below the boxes -->
  <path d="M 640 362 C 640 430, 400 430, 400 362" fill="none" stroke="#EF4444" stroke-width="1.5" stroke-dasharray="6,4" marker-end="url(#arrowhead-red)"/>
  <text x="520" y="448" text-anchor="middle" font-size="11" fill="#EF4444">feedback: re-reason</text>
  <text x="520" y="462" text-anchor="middle" font-size="11" fill="#EF4444">(low confidence loop)</text>

  <!-- Arrows back to Coordinator: RetrieverAgent and VerifierAgent (after pass) -->
  <line x1="160" y1="298" x2="310" y2="222" stroke="#6B7280" stroke-width="1" stroke-dasharray="4,3" marker-end="url(#arrowhead)"/>
  <line x1="640" y1="298" x2="490" y2="222" stroke="#10B981" stroke-width="1" stroke-dasharray="4,3" marker-end="url(#arrowhead-green)"/>
  <text x="590" y="262" text-anchor="middle" font-size="11" fill="#10B981">verified</text>

  <!-- Final Answer -->
  <rect x="310" y="480" width="180" height="28" rx="8" fill="#F0FDF4" stroke="#10B981" stroke-width="1.5"/>
  <text x="400" y="499" text-anchor="middle" font-size="13" font-weight="bold" fill="#065F46">Final Answer</text>

  <!-- Arrow: Coordinator -> Final Answer -->
  <line x1="400" y1="222" x2="400" y2="478" stroke="#10B981" stroke-width="1.5" stroke-dasharray="4,3" marker-end="url(#arrowhead-green)"/>
</svg>
