<svg xmlns="http://www.w3.org/2000/svg" width="800" height="560" viewBox="0 0 800 560" font-family="Arial, Helvetica, sans-serif">
  <defs>
    <marker id="arr" markerWidth="10" markerHeight="7" refX="9" refY="3.5" orient="auto">
      <polygon points="0 0, 10 3.5, 0 7" fill="#6B7280"/>
    </marker>
    <marker id="arr-blue" markerWidth="10" markerHeight="7" refX="9" refY="3.5" orient="auto">
      <polygon points="0 0, 10 3.5, 0 7" fill="#2563EB"/>
    </marker>
    <marker id="arr-red" markerWidth="10" markerHeight="7" refX="9" refY="3.5" orient="auto">
      <polygon points="0 0, 10 3.5, 0 7" fill="#EF4444"/>
    </marker>
    <marker id="arr-green" markerWidth="10" markerHeight="7" refX="9" refY="3.5" orient="auto">
      <polygon points="0 0, 10 3.5, 0 7" fill="#10B981"/>
    </marker>
  </defs>

  <!-- Background -->
  <rect width="800" height="560" fill="#ffffff"/>

  <!-- Title -->
  <text x="400" y="34" text-anchor="middle" font-size="18" font-weight="bold" fill="#111827">Workflow vs. Agent: Control Flow Comparison</text>
  <line x1="60" y1="46" x2="740" y2="46" stroke="#D1D5DB" stroke-width="1"/>

  <!-- Divider -->
  <line x1="400" y1="60" x2="400" y2="540" stroke="#E5E7EB" stroke-width="2" stroke-dasharray="6,4"/>

  <!-- ══ LEFT SIDE: Workflow ══ -->
  <text x="200" y="76" text-anchor="middle" font-size="16" font-weight="bold" fill="#374151">Workflow</text>
  <text x="200" y="94" text-anchor="middle" font-size="12" fill="#9CA3AF">Linear · Deterministic · No Memory</text>

  <!-- Step 1: Retrieve -->
  <rect x="100" y="112" width="200" height="54" rx="8" fill="#EFF6FF" stroke="#3B82F6" stroke-width="1.5"/>
  <text x="200" y="136" text-anchor="middle" font-size="14" font-weight="bold" fill="#1D4ED8">1. Retrieve</text>
  <text x="200" y="153" text-anchor="middle" font-size="11" fill="#6B7280">Top-k chunks from index</text>

  <!-- Arrow -->
  <line x1="200" y1="166" x2="200" y2="194" stroke="#6B7280" stroke-width="2" marker-end="url(#arr)"/>

  <!-- Step 2: Build Context -->
  <rect x="100" y="196" width="200" height="54" rx="8" fill="#EFF6FF" stroke="#3B82F6" stroke-width="1.5"/>
  <text x="200" y="220" text-anchor="middle" font-size="14" font-weight="bold" fill="#1D4ED8">2. Build Context</text>
  <text x="200" y="237" text-anchor="middle" font-size="11" fill="#6B7280">Assemble prompt + chunks</text>

  <!-- Arrow -->
  <line x1="200" y1="250" x2="200" y2="278" stroke="#6B7280" stroke-width="2" marker-end="url(#arr)"/>

  <!-- Step 3: Generate Answer -->
  <rect x="100" y="280" width="200" height="54" rx="8" fill="#EFF6FF" stroke="#3B82F6" stroke-width="1.5"/>
  <text x="200" y="304" text-anchor="middle" font-size="14" font-weight="bold" fill="#1D4ED8">3. Generate Answer</text>
  <text x="200" y="321" text-anchor="middle" font-size="11" fill="#6B7280">Single LLM call → output</text>

  <!-- Terminal output -->
  <rect x="130" y="368" width="140" height="36" rx="8" fill="#F0FDF4" stroke="#10B981" stroke-width="1.5"/>
  <text x="200" y="391" text-anchor="middle" font-size="13" font-weight="bold" fill="#065F46">Answer</text>

  <!-- Arrow to output -->
  <line x1="200" y1="334" x2="200" y2="366" stroke="#6B7280" stroke-width="2" marker-end="url(#arr)"/>

  <!-- Characteristic annotations -->
  <rect x="70" y="428" width="260" height="88" rx="6" fill="#F9FAFB" stroke="#E5E7EB" stroke-width="1"/>
  <text x="200" y="447" text-anchor="middle" font-size="11" font-weight="bold" fill="#6B7280">Characteristics</text>
  <text x="88" y="465" font-size="11" fill="#374151">- Fixed execution path</text>
  <text x="88" y="481" font-size="11" fill="#374151">- No decision making</text>
  <text x="88" y="497" font-size="11" fill="#374151">- No query refinement</text>
  <text x="88" y="513" font-size="11" fill="#374151">- Predictable cost</text>

  <!-- ══ RIGHT SIDE: Agent ══ -->
  <text x="600" y="76" text-anchor="middle" font-size="16" font-weight="bold" fill="#374151">Agent</text>
  <text x="600" y="94" text-anchor="middle" font-size="12" fill="#9CA3AF">Adaptive · Decision Loop · Self-Correcting</text>

  <!-- Step 1: Retrieve -->
  <rect x="500" y="112" width="200" height="54" rx="8" fill="#FFF7ED" stroke="#F59E0B" stroke-width="1.5"/>
  <text x="600" y="136" text-anchor="middle" font-size="14" font-weight="bold" fill="#92400E">1. Retrieve</text>
  <text x="600" y="153" text-anchor="middle" font-size="11" fill="#6B7280">Query → candidate chunks</text>

  <!-- Arrow -->
  <line x1="600" y1="166" x2="600" y2="194" stroke="#6B7280" stroke-width="2" marker-end="url(#arr)"/>

  <!-- Step 2: Think -->
  <rect x="500" y="196" width="200" height="54" rx="8" fill="#FFF7ED" stroke="#F59E0B" stroke-width="1.5"/>
  <text x="600" y="220" text-anchor="middle" font-size="14" font-weight="bold" fill="#92400E">2. Think</text>
  <text x="600" y="237" text-anchor="middle" font-size="11" fill="#6B7280">Assess quality · check gaps</text>

  <!-- Arrow -->
  <line x1="600" y1="250" x2="600" y2="278" stroke="#6B7280" stroke-width="2" marker-end="url(#arr)"/>

  <!-- Diamond: Decide -->
  <polygon points="600,284 660,318 600,352 540,318" fill="#FEF3C7" stroke="#F59E0B" stroke-width="1.5"/>
  <text x="600" y="314" text-anchor="middle" font-size="12" font-weight="bold" fill="#92400E">Decide</text>
  <text x="600" y="330" text-anchor="middle" font-size="10" fill="#92400E">Sufficient?</text>

  <!-- Budget Check diamond (inline label) -->
  <text x="672" y="312" font-size="10" fill="#EF4444">Budget</text>
  <text x="672" y="325" font-size="10" fill="#EF4444">Check</text>

  <!-- YES → Answer -->
  <line x1="600" y1="352" x2="600" y2="380" stroke="#10B981" stroke-width="2" marker-end="url(#arr-green)"/>
  <text x="612" y="372" font-size="11" fill="#059669">yes</text>

  <rect x="530" y="382" width="140" height="36" rx="8" fill="#F0FDF4" stroke="#10B981" stroke-width="1.5"/>
  <text x="600" y="405" text-anchor="middle" font-size="13" font-weight="bold" fill="#065F46">Answer</text>

  <!-- NO → Refine Query (loop back) -->
  <text x="480" y="316" text-anchor="middle" font-size="11" fill="#EF4444">no</text>
  <!-- Refine Query box -->
  <rect x="415" y="270" width="118" height="40" rx="8" fill="#FEF2F2" stroke="#EF4444" stroke-width="1.5"/>
  <text x="474" y="287" text-anchor="middle" font-size="12" font-weight="bold" fill="#B91C1C">Refine Query</text>
  <text x="474" y="303" text-anchor="middle" font-size="10" fill="#6B7280">Rewrite · Decompose</text>

  <!-- Arrow: Decide left to Refine -->
  <line x1="540" y1="318" x2="535" y2="318" stroke="#EF4444" stroke-width="1.5" marker-end="url(#arr-red)"/>

  <!-- Loop back arrow from Refine to Retrieve -->
  <path d="M474,270 L474,138 L498,138" fill="none" stroke="#EF4444" stroke-width="1.5" stroke-dasharray="5,3" marker-end="url(#arr-red)"/>
  <text x="450" y="200" font-size="10" fill="#EF4444" transform="rotate(-90 450 200)">loop back</text>

  <!-- Escalate exit path -->
  <line x1="660" y1="318" x2="730" y2="318" stroke="#6B7280" stroke-width="1.5" marker-end="url(#arr)"/>
  <rect x="730" y="300" width="55" height="36" rx="6" fill="#F3F4F6" stroke="#9CA3AF" stroke-width="1.5"/>
  <text x="757" y="321" text-anchor="middle" font-size="11" font-weight="bold" fill="#374151">Escalate</text>

  <!-- Characteristic annotations -->
  <rect x="470" y="428" width="260" height="88" rx="6" fill="#F9FAFB" stroke="#E5E7EB" stroke-width="1"/>
  <text x="600" y="447" text-anchor="middle" font-size="11" font-weight="bold" fill="#6B7280">Characteristics</text>
  <text x="488" y="465" font-size="11" fill="#374151">- Dynamic execution path</text>
  <text x="488" y="481" font-size="11" fill="#374151">- Self-evaluates retrieval quality</text>
  <text x="488" y="497" font-size="11" fill="#374151">- Retries with refined queries</text>
  <text x="488" y="513" font-size="11" fill="#374151">- Variable cost (budget needed)</text>
</svg>
