<svg xmlns="http://www.w3.org/2000/svg" width="800" height="580" viewBox="0 0 800 580" font-family="Arial, Helvetica, sans-serif">
  <!-- Background -->
  <rect width="800" height="580" fill="#ffffff"/>

  <!-- Title -->
  <text x="400" y="34" text-anchor="middle" font-size="18" font-weight="bold" fill="#111827">Agent Failure Surfaces and Mitigations</text>
  <line x1="60" y1="46" x2="740" y2="46" stroke="#D1D5DB" stroke-width="1"/>

  <!-- Axis labels -->
  <text x="200" y="64" text-anchor="middle" font-size="13" font-weight="bold" fill="#6B7280">Data Plane</text>
  <text x="600" y="64" text-anchor="middle" font-size="13" font-weight="bold" fill="#6B7280">Reasoning Plane</text>

  <!-- Horizontal and vertical dividers -->
  <line x1="400" y1="72" x2="400" y2="542" stroke="#E5E7EB" stroke-width="2"/>
  <line x1="60" y1="304" x2="740" y2="304" stroke="#E5E7EB" stroke-width="2"/>

  <!-- Side labels -->
  <text x="22" y="200" text-anchor="middle" font-size="12" font-weight="bold" fill="#6B7280" transform="rotate(-90 22 200)">Input / Fetch</text>
  <text x="22" y="430" text-anchor="middle" font-size="12" font-weight="bold" fill="#6B7280" transform="rotate(-90 22 430)">Execution / Infra</text>

  <!-- ══ Q1: Retrieval Failures (top-left) ══ -->
  <rect x="64" y="74" width="328" height="222" rx="12" fill="#FEF2F2" stroke="#FCA5A5" stroke-width="1.5"/>
  <text x="84" y="96" font-size="14" font-weight="bold" fill="#B91C1C">Retrieval Failures</text>

  <!-- Failure items -->
  <rect x="80" y="106" width="148" height="32" rx="6" fill="#ffffff" stroke="#FCA5A5" stroke-width="1.5"/>
  <text x="154" y="127" text-anchor="middle" font-size="12" font-weight="bold" fill="#7F1D1D">Semantic Gap</text>

  <rect x="80" y="148" width="148" height="32" rx="6" fill="#ffffff" stroke="#FCA5A5" stroke-width="1.5"/>
  <text x="154" y="169" text-anchor="middle" font-size="12" font-weight="bold" fill="#7F1D1D">Chunk Boundary</text>

  <rect x="80" y="190" width="148" height="32" rx="6" fill="#ffffff" stroke="#FCA5A5" stroke-width="1.5"/>
  <text x="154" y="211" text-anchor="middle" font-size="12" font-weight="bold" fill="#7F1D1D">Low Relevance</text>

  <!-- Mitigation annotations -->
  <text x="242" y="108" font-size="10" font-weight="bold" fill="#059669">Mitigation</text>
  <text x="242" y="122" font-size="10" fill="#374151">Query rewriting;</text>
  <text x="242" y="135" font-size="10" fill="#374151">HyDE expansion</text>

  <text x="242" y="152" font-size="10" fill="#374151">Overlap-aware</text>
  <text x="242" y="165" font-size="10" fill="#374151">chunking strategy</text>

  <text x="242" y="194" font-size="10" fill="#374151">Reranker model;</text>
  <text x="242" y="207" font-size="10" fill="#374151">relevance threshold</text>

  <text x="228" y="246" font-size="10" fill="#6B7280" font-style="italic">Eval signal: retrieval recall@k</text>
  <text x="228" y="260" font-size="10" fill="#6B7280" font-style="italic">Tracer tag: retrieval_miss</text>
  <text x="228" y="274" font-size="10" fill="#6B7280" font-style="italic">Budget impact: low</text>

  <!-- ══ Q2: Reasoning Failures (top-right) ══ -->
  <rect x="408" y="74" width="328" height="222" rx="12" fill="#FFF7ED" stroke="#FCD34D" stroke-width="1.5"/>
  <text x="428" y="96" font-size="14" font-weight="bold" fill="#92400E">Reasoning Failures</text>

  <rect x="424" y="106" width="164" height="32" rx="6" fill="#ffffff" stroke="#FCD34D" stroke-width="1.5"/>
  <text x="506" y="127" text-anchor="middle" font-size="12" font-weight="bold" fill="#78350F">Hallucination</text>

  <rect x="424" y="148" width="164" height="32" rx="6" fill="#ffffff" stroke="#FCD34D" stroke-width="1.5"/>
  <text x="506" y="169" text-anchor="middle" font-size="12" font-weight="bold" fill="#78350F">Citation Fabrication</text>

  <rect x="424" y="190" width="164" height="32" rx="6" fill="#ffffff" stroke="#FCD34D" stroke-width="1.5"/>
  <text x="506" y="211" text-anchor="middle" font-size="12" font-weight="bold" fill="#78350F">Over-Confidence</text>

  <!-- Mitigation annotations -->
  <text x="600" y="108" font-size="10" font-weight="bold" fill="#059669">Mitigation</text>
  <text x="600" y="122" font-size="10" fill="#374151">Faithfulness eval;</text>
  <text x="600" y="135" font-size="10" fill="#374151">NLI grounding check</text>

  <text x="600" y="152" font-size="10" fill="#374151">Citation grounding;</text>
  <text x="600" y="165" font-size="10" fill="#374151">URL verification step</text>

  <text x="600" y="194" font-size="10" fill="#374151">Calibration probes;</text>
  <text x="600" y="207" font-size="10" fill="#374151">hedge-word detector</text>

  <text x="428" y="246" font-size="10" fill="#6B7280" font-style="italic">Eval signal: faithfulness score</text>
  <text x="428" y="260" font-size="10" fill="#6B7280" font-style="italic">Tracer tag: hallucination_risk</text>
  <text x="428" y="274" font-size="10" fill="#6B7280" font-style="italic">Budget impact: medium</text>

  <!-- ══ Q3: Tool Failures (bottom-left) ══ -->
  <rect x="64" y="312" width="328" height="222" rx="12" fill="#F5F3FF" stroke="#C4B5FD" stroke-width="1.5"/>
  <text x="84" y="334" font-size="14" font-weight="bold" fill="#5B21B6">Tool Failures</text>

  <rect x="80" y="344" width="160" height="32" rx="6" fill="#ffffff" stroke="#C4B5FD" stroke-width="1.5"/>
  <text x="160" y="365" text-anchor="middle" font-size="12" font-weight="bold" fill="#4C1D95">Argument Hallucination</text>

  <rect x="80" y="386" width="160" height="32" rx="6" fill="#ffffff" stroke="#C4B5FD" stroke-width="1.5"/>
  <text x="160" y="407" text-anchor="middle" font-size="12" font-weight="bold" fill="#4C1D95">Unnecessary Calls</text>

  <rect x="80" y="428" width="160" height="32" rx="6" fill="#ffffff" stroke="#C4B5FD" stroke-width="1.5"/>
  <text x="160" y="449" text-anchor="middle" font-size="12" font-weight="bold" fill="#4C1D95">Error Cascade</text>

  <!-- Mitigation annotations -->
  <text x="254" y="346" font-size="10" font-weight="bold" fill="#059669">Mitigation</text>
  <text x="254" y="360" font-size="10" fill="#374151">Schema validation;</text>
  <text x="254" y="373" font-size="10" fill="#374151">arg grounding check</text>

  <text x="254" y="390" font-size="10" fill="#374151">Budget gate;</text>
  <text x="254" y="403" font-size="10" fill="#374151">tool-use justification</text>

  <text x="254" y="432" font-size="10" fill="#374151">Retry with backoff;</text>
  <text x="254" y="445" font-size="10" fill="#374151">circuit breaker pattern</text>

  <text x="80" y="484" font-size="10" fill="#6B7280" font-style="italic">Eval signal: tool success rate</text>
  <text x="80" y="498" font-size="10" fill="#6B7280" font-style="italic">Tracer tag: tool_error</text>
  <text x="80" y="512" font-size="10" fill="#6B7280" font-style="italic">Budget impact: variable</text>

  <!-- ══ Q4: System Failures (bottom-right) ══ -->
  <rect x="408" y="312" width="328" height="222" rx="12" fill="#F0F9FF" stroke="#7DD3FC" stroke-width="1.5"/>
  <text x="428" y="334" font-size="14" font-weight="bold" fill="#0369A1">System Failures</text>

  <rect x="424" y="344" width="162" height="32" rx="6" fill="#ffffff" stroke="#7DD3FC" stroke-width="1.5"/>
  <text x="505" y="365" text-anchor="middle" font-size="12" font-weight="bold" fill="#075985">Budget Exhaustion</text>

  <rect x="424" y="386" width="162" height="32" rx="6" fill="#ffffff" stroke="#7DD3FC" stroke-width="1.5"/>
  <text x="505" y="407" text-anchor="middle" font-size="12" font-weight="bold" fill="#075985">Context Overflow</text>

  <rect x="424" y="428" width="162" height="32" rx="6" fill="#ffffff" stroke="#7DD3FC" stroke-width="1.5"/>
  <text x="505" y="449" text-anchor="middle" font-size="12" font-weight="bold" fill="#075985">API Errors</text>

  <!-- Mitigation annotations -->
  <text x="598" y="346" font-size="10" font-weight="bold" fill="#059669">Mitigation</text>
  <text x="598" y="360" font-size="10" fill="#374151">Token budget;</text>
  <text x="598" y="373" font-size="10" fill="#374151">hard stop + escalate</text>

  <text x="598" y="390" font-size="10" fill="#374151">Summarise history;</text>
  <text x="598" y="403" font-size="10" fill="#374151">sliding window trim</text>

  <text x="598" y="432" font-size="10" fill="#374151">Retry with jitter;</text>
  <text x="598" y="445" font-size="10" fill="#374151">fallback model</text>

  <text x="428" y="484" font-size="10" fill="#6B7280" font-style="italic">Eval signal: run completion rate</text>
  <text x="428" y="498" font-size="10" fill="#6B7280" font-style="italic">Tracer tag: system_abort</text>
  <text x="428" y="512" font-size="10" fill="#6B7280" font-style="italic">Budget impact: high</text>

  <!-- Bottom note -->
  <text x="400" y="552" text-anchor="middle" font-size="11" fill="#9CA3AF">Each quadrant maps to a distinct debugging and observability strategy.</text>
</svg>
