<svg xmlns="http://www.w3.org/2000/svg" width="800" height="300" viewBox="0 0 800 300" font-family="Arial, Helvetica, sans-serif">
  <defs>
    <marker id="arrowhead" markerWidth="10" markerHeight="7" refX="9" refY="3.5" orient="auto">
      <polygon points="0 0, 10 3.5, 0 7" fill="#6B7280"/>
    </marker>
    <marker id="arrowhead-blue" markerWidth="10" markerHeight="7" refX="9" refY="3.5" orient="auto">
      <polygon points="0 0, 10 3.5, 0 7" fill="#2563EB"/>
    </marker>
    <marker id="arrowhead-green" markerWidth="10" markerHeight="7" refX="9" refY="3.5" orient="auto">
      <polygon points="0 0, 10 3.5, 0 7" fill="#10B981"/>
    </marker>
  </defs>

  <!-- Background -->
  <rect width="800" height="300" fill="#ffffff"/>

  <!-- Title -->
  <text x="400" y="30" text-anchor="middle" font-size="18" font-weight="bold" fill="#111827">Typed Message Contract Flow</text>
  <line x1="60" y1="42" x2="740" y2="42" stroke="#D1D5DB" stroke-width="1"/>

  <!-- ===== Row 1: Orchestrator -> Retriever -> Orchestrator ===== -->

  <!-- Orchestrator (left, row 1) -->
  <rect x="20" y="60" width="120" height="52" rx="8" fill="#1D4ED8" stroke="#1E40AF" stroke-width="2"/>
  <text x="80" y="84" text-anchor="middle" font-size="12" font-weight="bold" fill="#ffffff">Orchestrator</text>
  <text x="80" y="100" text-anchor="middle" font-size="10" fill="#BFDBFE">coordinates</text>

  <!-- Arrow: Orchestrator -> RetrieverAgent -->
  <line x1="140" y1="86" x2="228" y2="86" stroke="#2563EB" stroke-width="1.5" marker-end="url(#arrowhead-blue)"/>
  <!-- Label above arrow -->
  <rect x="148" y="68" width="72" height="16" rx="4" fill="#EFF6FF" stroke="#3B82F6" stroke-width="1"/>
  <text x="184" y="80" text-anchor="middle" font-size="9" fill="#1D4ED8">RetrievalRequest</text>

  <!-- RetrieverAgent -->
  <rect x="228" y="60" width="124" height="52" rx="8" fill="#ffffff" stroke="#3B82F6" stroke-width="1.5"/>
  <text x="290" y="84" text-anchor="middle" font-size="12" font-weight="bold" fill="#1D4ED8">RetrieverAgent</text>
  <text x="290" y="100" text-anchor="middle" font-size="10" fill="#6B7280">vector search</text>

  <!-- Arrow: RetrieverAgent -> Orchestrator (return) -->
  <line x1="352" y1="86" x2="440" y2="86" stroke="#6B7280" stroke-width="1.5" marker-end="url(#arrowhead)"/>
  <!-- Label above arrow -->
  <rect x="357" y="68" width="78" height="16" rx="4" fill="#F9FAFB" stroke="#D1D5DB" stroke-width="1"/>
  <text x="396" y="80" text-anchor="middle" font-size="9" fill="#374151">RetrievalResult</text>

  <!-- Orchestrator (center) -->
  <rect x="440" y="60" width="120" height="52" rx="8" fill="#1D4ED8" stroke="#1E40AF" stroke-width="2"/>
  <text x="500" y="84" text-anchor="middle" font-size="12" font-weight="bold" fill="#ffffff">Orchestrator</text>
  <text x="500" y="100" text-anchor="middle" font-size="10" fill="#BFDBFE">aggregates</text>

  <!-- Arrow: Orchestrator -> ReasoningAgent -->
  <line x1="560" y1="86" x2="648" y2="86" stroke="#F59E0B" stroke-width="1.5" marker-end="url(#arrowhead)"/>
  <!-- Label above arrow -->
  <rect x="563" y="68" width="78" height="16" rx="4" fill="#FFFBEB" stroke="#F59E0B" stroke-width="1"/>
  <text x="602" y="80" text-anchor="middle" font-size="9" fill="#92400E">ReasoningRequest</text>

  <!-- ReasoningAgent -->
  <rect x="648" y="60" width="128" height="52" rx="8" fill="#ffffff" stroke="#F59E0B" stroke-width="1.5"/>
  <text x="712" y="84" text-anchor="middle" font-size="12" font-weight="bold" fill="#92400E">ReasoningAgent</text>
  <text x="712" y="100" text-anchor="middle" font-size="10" fill="#6B7280">synthesize</text>

  <!-- ===== Row 2: ReasoningAgent -> Orchestrator -> Verifier -> Orchestrator ===== -->

  <!-- Arrow: ReasoningAgent -> Orchestrator (return, going down) -->
  <path d="M 712 112 C 712 148, 500 148, 500 168" fill="none" stroke="#6B7280" stroke-width="1.5" marker-end="url(#arrowhead)"/>
  <!-- Label for return -->
  <rect x="580" y="138" width="78" height="16" rx="4" fill="#F9FAFB" stroke="#D1D5DB" stroke-width="1"/>
  <text x="619" y="150" text-anchor="middle" font-size="9" fill="#374151">ReasoningResult</text>

  <!-- Orchestrator (row 2) -->
  <rect x="440" y="168" width="120" height="52" rx="8" fill="#1D4ED8" stroke="#1E40AF" stroke-width="2"/>
  <text x="500" y="192" text-anchor="middle" font-size="12" font-weight="bold" fill="#ffffff">Orchestrator</text>
  <text x="500" y="208" text-anchor="middle" font-size="10" fill="#BFDBFE">evaluates</text>

  <!-- Arrow: Orchestrator -> VerifierAgent -->
  <line x1="440" y1="194" x2="352" y2="194" stroke="#10B981" stroke-width="1.5" marker-end="url(#arrowhead-green)"/>
  <!-- Label above arrow -->
  <rect x="358" y="176" width="76" height="16" rx="4" fill="#F0FDF4" stroke="#10B981" stroke-width="1"/>
  <text x="396" y="188" text-anchor="middle" font-size="9" fill="#065F46">VerificationRequest</text>

  <!-- VerifierAgent -->
  <rect x="228" y="168" width="124" height="52" rx="8" fill="#ffffff" stroke="#10B981" stroke-width="1.5"/>
  <text x="290" y="192" text-anchor="middle" font-size="12" font-weight="bold" fill="#065F46">VerifierAgent</text>
  <text x="290" y="208" text-anchor="middle" font-size="10" fill="#6B7280">fact-check</text>

  <!-- Arrow: VerifierAgent -> Orchestrator (return) -->
  <line x1="228" y1="194" x2="140" y2="194" stroke="#6B7280" stroke-width="1.5" marker-end="url(#arrowhead)"/>
  <!-- Label above arrow -->
  <rect x="143" y="176" width="78" height="16" rx="4" fill="#F9FAFB" stroke="#D1D5DB" stroke-width="1"/>
  <text x="182" y="188" text-anchor="middle" font-size="9" fill="#374151">VerificationResult</text>

  <!-- Orchestrator (final, row 2 left) -->
  <rect x="20" y="168" width="120" height="52" rx="8" fill="#1D4ED8" stroke="#1E40AF" stroke-width="2"/>
  <text x="80" y="192" text-anchor="middle" font-size="12" font-weight="bold" fill="#ffffff">Orchestrator</text>
  <text x="80" y="208" text-anchor="middle" font-size="10" fill="#BFDBFE">final answer</text>

  <!-- Legend -->
  <rect x="20" y="250" width="760" height="36" rx="8" fill="#F9FAFB" stroke="#D1D5DB" stroke-width="1"/>
  <text x="40" y="270" font-size="11" font-weight="bold" fill="#374151">Message Types:</text>
  <rect x="145" y="260" width="10" height="10" rx="2" fill="#EFF6FF" stroke="#3B82F6" stroke-width="1"/>
  <text x="160" y="270" font-size="10" fill="#1D4ED8">RetrievalRequest / Result</text>
  <rect x="310" y="260" width="10" height="10" rx="2" fill="#FFFBEB" stroke="#F59E0B" stroke-width="1"/>
  <text x="325" y="270" font-size="10" fill="#92400E">ReasoningRequest / Result</text>
  <rect x="485" y="260" width="10" height="10" rx="2" fill="#F0FDF4" stroke="#10B981" stroke-width="1"/>
  <text x="500" y="270" font-size="10" fill="#065F46">VerificationRequest / Result</text>
  <text x="670" y="270" font-size="10" fill="#6B7280">All typed via Pydantic</text>
</svg>
