<svg xmlns="http://www.w3.org/2000/svg" width="600" height="400" viewBox="0 0 600 400" font-family="Arial, Helvetica, sans-serif">
  <!-- Background -->
  <rect width="600" height="400" fill="#ffffff"/>

  <!-- Title -->
  <text x="300" y="30" text-anchor="middle" font-size="18" font-weight="bold" fill="#111827">Risk Tier vs. Confidence Matrix</text>
  <line x1="60" y1="42" x2="540" y2="42" stroke="#D1D5DB" stroke-width="1"/>

  <!-- ===== Matrix area: x=80..540, y=60..320 ===== -->

  <!-- Zone 1: Low Risk + Low Conf = yellow (review recommended) -->
  <rect x="80" y="220" width="230" height="100" rx="0" fill="#FEF9C3" stroke="none"/>
  <!-- Zone 2: Low Risk + High Conf = green (auto-approve) -->
  <rect x="310" y="220" width="230" height="100" rx="0" fill="#D1FAE5" stroke="none"/>
  <!-- Zone 3: Medium Risk + Low Conf = orange-yellow (review recommended) -->
  <rect x="80" y="150" width="230" height="70" rx="0" fill="#FEF3C7" stroke="none"/>
  <!-- Zone 4: Medium Risk + High Conf = light green (review recommended) -->
  <rect x="310" y="150" width="230" height="70" rx="0" fill="#ECFDF5" stroke="none"/>
  <!-- Zone 5: High Risk + Low Conf = red (human required) -->
  <rect x="80" y="100" width="230" height="50" rx="0" fill="#FEE2E2" stroke="none"/>
  <!-- Zone 6: High Risk + High Conf = orange (human required) -->
  <rect x="310" y="100" width="230" height="50" rx="0" fill="#FFEDD5" stroke="none"/>
  <!-- Zone 7: Critical Risk (full width) = dark red (always escalate) -->
  <rect x="80" y="60" width="460" height="40" rx="0" fill="#991B1B" stroke="none"/>

  <!-- Matrix outer border -->
  <rect x="80" y="60" width="460" height="260" fill="none" stroke="#374151" stroke-width="2"/>

  <!-- Vertical divider (Low/High confidence split at x=310) -->
  <line x1="310" y1="60" x2="310" y2="320" stroke="#374151" stroke-width="1.5" stroke-dasharray="4,3"/>

  <!-- Horizontal dividers -->
  <!-- Critical / High at y=100 -->
  <line x1="80" y1="100" x2="540" y2="100" stroke="#374151" stroke-width="1.5"/>
  <!-- High / Medium at y=150 -->
  <line x1="80" y1="150" x2="540" y2="150" stroke="#374151" stroke-width="1" stroke-dasharray="4,3"/>
  <!-- Medium / Low at y=220 -->
  <line x1="80" y1="220" x2="540" y2="220" stroke="#374151" stroke-width="1" stroke-dasharray="4,3"/>

  <!-- Zone labels -->
  <!-- Critical row -->
  <text x="310" y="78" text-anchor="middle" font-size="12" font-weight="bold" fill="#ffffff">Critical — Always Escalate (regardless of confidence)</text>

  <!-- High Risk + Low Conf -->
  <text x="195" y="122" text-anchor="middle" font-size="11" font-weight="bold" fill="#991B1B">Human Required</text>
  <text x="195" y="137" text-anchor="middle" font-size="10" fill="#6B7280">high risk, low confidence</text>

  <!-- High Risk + High Conf -->
  <text x="425" y="122" text-anchor="middle" font-size="11" font-weight="bold" fill="#C2410C">Human Required</text>
  <text x="425" y="137" text-anchor="middle" font-size="10" fill="#6B7280">high risk (always review)</text>

  <!-- Medium Risk + Low Conf -->
  <text x="195" y="183" text-anchor="middle" font-size="11" font-weight="bold" fill="#B45309">Review Recommended</text>
  <text x="195" y="198" text-anchor="middle" font-size="10" fill="#6B7280">medium risk, low confidence</text>

  <!-- Medium Risk + High Conf -->
  <text x="425" y="183" text-anchor="middle" font-size="11" font-weight="bold" fill="#065F46">Review Recommended</text>
  <text x="425" y="198" text-anchor="middle" font-size="10" fill="#6B7280">monitor escalation rate</text>

  <!-- Low Risk + Low Conf -->
  <text x="195" y="258" text-anchor="middle" font-size="11" font-weight="bold" fill="#B45309">Review Recommended</text>
  <text x="195" y="273" text-anchor="middle" font-size="10" fill="#6B7280">confidence below threshold</text>

  <!-- Low Risk + High Conf -->
  <text x="425" y="258" text-anchor="middle" font-size="12" font-weight="bold" fill="#065F46">Auto-Approve</text>
  <text x="425" y="273" text-anchor="middle" font-size="10" fill="#6B7280">low risk, high confidence</text>

  <!-- X-axis label -->
  <text x="310" y="345" text-anchor="middle" font-size="13" font-weight="bold" fill="#374151">Confidence</text>
  <!-- X-axis tick labels -->
  <text x="100" y="338" text-anchor="middle" font-size="11" fill="#6B7280">Low</text>
  <text x="310" y="338" text-anchor="middle" font-size="11" fill="#6B7280">Threshold</text>
  <text x="530" y="338" text-anchor="middle" font-size="11" fill="#6B7280">High</text>
  <!-- X-axis arrow -->
  <line x1="80" y1="330" x2="535" y2="330" stroke="#374151" stroke-width="1.5"/>
  <polygon points="535,326 545,330 535,334" fill="#374151"/>

  <!-- Y-axis label -->
  <text x="30" y="190" text-anchor="middle" font-size="13" font-weight="bold" fill="#374151" transform="rotate(-90 30 190)">Risk Level</text>
  <!-- Y-axis tick labels -->
  <text x="68" y="323" text-anchor="end" font-size="11" fill="#6B7280">Low</text>
  <text x="68" y="230" text-anchor="end" font-size="11" fill="#6B7280">Med</text>
  <text x="68" y="155" text-anchor="end" font-size="11" fill="#6B7280">High</text>
  <text x="68" y="80" text-anchor="end" font-size="11" fill="#991B1B">Critical</text>
  <!-- Y-axis arrow -->
  <line x1="72" y1="325" x2="72" y2="63" stroke="#374151" stroke-width="1.5"/>
  <polygon points="68,63 72,53 76,63" fill="#374151"/>

  <!-- Legend -->
  <rect x="80" y="356" width="460" height="34" rx="8" fill="#F9FAFB" stroke="#D1D5DB" stroke-width="1"/>
  <rect x="96" y="366" width="14" height="14" rx="2" fill="#D1FAE5" stroke="#10B981" stroke-width="1"/>
  <text x="115" y="377" font-size="10" fill="#065F46">Auto-Approve</text>
  <rect x="196" y="366" width="14" height="14" rx="2" fill="#FEF9C3" stroke="#F59E0B" stroke-width="1"/>
  <text x="215" y="377" font-size="10" fill="#B45309">Review Recommended</text>
  <rect x="336" y="366" width="14" height="14" rx="2" fill="#FEE2E2" stroke="#EF4444" stroke-width="1"/>
  <text x="355" y="377" font-size="10" fill="#991B1B">Human Required</text>
  <rect x="456" y="366" width="14" height="14" rx="2" fill="#991B1B" stroke="#7F1D1D" stroke-width="1"/>
  <text x="475" y="377" font-size="10" fill="#991B1B">Always Escalate</text>
</svg>
