<svg xmlns="http://www.w3.org/2000/svg" viewBox="0 0 800 350" width="800" height="350" style="background:#fff;font-family:system-ui,-apple-system,sans-serif;">

  <!-- Background -->
  <rect width="800" height="350" fill="#ffffff" rx="0"/>

  <!-- Title -->
  <text x="400" y="30" text-anchor="middle" font-size="16" font-weight="600" fill="#374151">Trace Waterfall: Agent Execution Decomposed into Spans</text>

  <!-- Timeline header -->
  <!-- X axis: 0ms to 1600ms, mapped to x=160 to x=760, width=600 -->
  <!-- Labels -->
  <text x="160" y="60" text-anchor="middle" font-size="11" fill="#6B7280">0ms</text>
  <text x="235" y="60" text-anchor="middle" font-size="11" fill="#6B7280">200ms</text>
  <text x="310" y="60" text-anchor="middle" font-size="11" fill="#6B7280">400ms</text>
  <text x="385" y="60" text-anchor="middle" font-size="11" fill="#6B7280">600ms</text>
  <text x="460" y="60" text-anchor="middle" font-size="11" fill="#6B7280">800ms</text>
  <text x="535" y="60" text-anchor="middle" font-size="11" fill="#6B7280">1000ms</text>
  <text x="610" y="60" text-anchor="middle" font-size="11" fill="#6B7280">1200ms</text>
  <text x="685" y="60" text-anchor="middle" font-size="11" fill="#6B7280">1400ms</text>
  <text x="760" y="60" text-anchor="middle" font-size="11" fill="#6B7280">1600ms</text>

  <!-- Vertical grid lines -->
  <line x1="160" y1="65" x2="160" y2="285" stroke="#D1D5DB" stroke-width="1"/>
  <line x1="235" y1="65" x2="235" y2="285" stroke="#E5E7EB" stroke-width="1" stroke-dasharray="3,3"/>
  <line x1="310" y1="65" x2="310" y2="285" stroke="#E5E7EB" stroke-width="1" stroke-dasharray="3,3"/>
  <line x1="385" y1="65" x2="385" y2="285" stroke="#E5E7EB" stroke-width="1" stroke-dasharray="3,3"/>
  <line x1="460" y1="65" x2="460" y2="285" stroke="#E5E7EB" stroke-width="1" stroke-dasharray="3,3"/>
  <line x1="535" y1="65" x2="535" y2="285" stroke="#E5E7EB" stroke-width="1" stroke-dasharray="3,3"/>
  <line x1="610" y1="65" x2="610" y2="285" stroke="#E5E7EB" stroke-width="1" stroke-dasharray="3,3"/>
  <line x1="685" y1="65" x2="685" y2="285" stroke="#E5E7EB" stroke-width="1" stroke-dasharray="3,3"/>
  <line x1="760" y1="65" x2="760" y2="285" stroke="#D1D5DB" stroke-width="1"/>

  <!-- Span name column header -->
  <text x="80" y="60" text-anchor="middle" font-size="11" font-weight="600" fill="#374151">Span</text>

  <!-- Scale: 1ms = 600/1600 = 0.375px, x = 160 + (ms * 0.375) -->

  <!-- Span 1: Retrieve (0-50ms) -->
  <!-- x_start = 160, width = 50*0.375 = 18.75 -->
  <text x="80" y="92" text-anchor="middle" font-size="12" fill="#374151">Retrieve</text>
  <rect x="160" y="77" width="19" height="22" rx="4" fill="#3B82F6"/>
  <text x="185" y="92" font-size="11" fill="#6B7280">50ms</text>

  <!-- Span 2: Build Context (50-60ms) -->
  <!-- x_start = 160 + 50*0.375 = 178.75, width = 10*0.375 = 3.75 -->
  <text x="80" y="127" text-anchor="middle" font-size="12" fill="#374151">Build Context</text>
  <rect x="179" y="112" width="4" height="22" rx="2" fill="#9CA3AF"/>
  <text x="189" y="127" font-size="11" fill="#6B7280">10ms</text>

  <!-- Span 3: Model Call #1 (60-800ms) -->
  <!-- x_start = 160 + 60*0.375 = 182.5, width = 740*0.375 = 277.5 -->
  <text x="80" y="162" text-anchor="middle" font-size="12" fill="#374151">Model Call #1</text>
  <rect x="183" y="147" width="277" height="22" rx="4" fill="#2563EB"/>
  <text x="184" y="162" font-size="10" fill="#DBEAFE" font-weight="500">  prompt: 2.1k tokens, completion: 340 tokens</text>
  <text x="466" y="162" font-size="11" fill="#6B7280" dx="4">740ms</text>

  <!-- Span 4: Tool: extract (800-900ms) -->
  <!-- x_start = 160 + 800*0.375 = 460, width = 100*0.375 = 37.5 -->
  <text x="80" y="197" text-anchor="middle" font-size="12" fill="#374151">Tool: extract</text>
  <rect x="460" y="182" width="38" height="22" rx="4" fill="#10B981"/>
  <text x="504" y="197" font-size="11" fill="#6B7280">100ms</text>

  <!-- Span 5: Model Call #2 (900-1600ms) -->
  <!-- x_start = 160 + 900*0.375 = 497.5, width = 700*0.375 = 262.5 -->
  <text x="80" y="232" text-anchor="middle" font-size="12" fill="#374151">Model Call #2</text>
  <rect x="498" y="217" width="262" height="22" rx="4" fill="#2563EB"/>
  <text x="762" y="232" font-size="11" fill="#6B7280" dx="4">700ms</text>

  <!-- Bottom axis line -->
  <line x1="160" y1="290" x2="760" y2="290" stroke="#374151" stroke-width="1.5"/>

  <!-- Total label -->
  <text x="460" y="313" text-anchor="middle" font-size="13" font-weight="600" fill="#374151">Total: 1600ms</text>

  <!-- Legend -->
  <rect x="170" y="325" width="12" height="12" rx="2" fill="#2563EB"/>
  <text x="186" y="335" font-size="11" fill="#374151">Model call</text>
  <rect x="270" y="325" width="12" height="12" rx="2" fill="#10B981"/>
  <text x="286" y="335" font-size="11" fill="#374151">Tool call</text>
  <rect x="360" y="325" width="12" height="12" rx="2" fill="#9CA3AF"/>
  <text x="376" y="335" font-size="11" fill="#374151">Processing</text>
  <rect x="460" y="325" width="12" height="12" rx="2" fill="#3B82F6"/>
  <text x="476" y="335" font-size="11" fill="#374151">Retrieval</text>

</svg>
